<svg width="614" height="594" viewBox="0 0 614 594" fill="none" xmlns="http://www.w3.org/2000/svg">
<path d="M296.996 6.00072C457.613 0.516678 592.276 126.268 597.811 286.906C603.345 447.545 477.655 582.267 317.043 587.853C156.357 593.442 21.5795 467.665 16.0428 306.955C10.506 146.245 136.308 11.4872 296.996 6.00072ZM315.85 567.041C464.943 562.123 581.837 437.293 576.986 288.178C572.135 139.063 447.375 22.0962 298.279 26.8839C149.093 31.6745 32.0569 156.548 36.9108 305.753C41.7646 454.957 166.67 571.958 315.85 567.041Z" fill="black"/>
<path d="M388.406 196.23C388.49 196.219 388.574 196.209 388.658 196.198C401.855 195.777 414.555 199.175 427.533 201.247C433.694 202.231 444.077 203.215 449.404 204.533C453.592 205.549 457.604 207.188 461.306 209.395C464.409 211.211 467.797 214.07 469.914 216.953C475.247 224.216 482.431 227.863 489.215 233.627C502.763 245.138 512.975 260.387 514.819 278.429C517.004 299.768 513.694 319.744 506.304 339.737C505.24 342.634 504.029 345.477 502.674 348.253C501.222 351.234 497.214 357.497 496.767 360.169C496.312 362.91 499.163 367.809 499.193 371.536C499.28 381.356 495.901 386.595 489.902 393.452C493.628 404.334 493.164 408.109 490.552 418.966C493.625 419.653 499.007 420.622 500.998 423.113C504.976 428.097 501.432 440.469 497.163 444.475C495.28 446.244 490.75 445.836 488.325 445.458C487.207 444.469 486.346 443.965 485.099 443.17C485.309 448.322 483.837 458.846 479.466 461.974C472.75 466.783 460.872 465.5 455.745 458.75C451.311 452.909 454.315 445.479 456.243 439.329C456.534 438.406 458.165 434.726 456.752 434.639C452.36 434.265 447.054 434.58 442.809 433.524C439.493 432.696 436.761 428.178 437.217 424.777C437.874 419.872 439.394 413.314 443.204 409.935C446.991 406.577 452.795 410.046 457.106 410.412C457.517 409.74 457.847 405.932 457.976 404.793C458.284 402.043 461.873 395.512 460.398 393.257C459.166 393.539 459.625 394.607 457.628 395.467C451.989 397.899 444.91 399.146 439.397 401.413C434.363 403.482 429.446 407.152 424.272 409.317C407.641 416.28 389.674 417.095 372.735 410.595C369.518 409.38 357.274 402.954 355.074 399.665C355.059 399.644 352.489 396.145 352 395.5C352.5 397.476 353.236 400.301 353.131 401.38C352.51 407.659 349.368 413.53 345.546 418.544C342.518 419.722 338.261 420.469 335.098 418.975C334.234 418.568 334.318 417.512 334.207 416.652L333.719 416.343C332.148 416.861 330.903 420.313 330.37 421.812C328.136 428.076 325.915 434.103 318.138 434.421C312.723 434.642 307.642 433.455 303.522 429.617C301.565 427.809 300.191 425.455 299.579 422.861C297.393 413.488 317 403.5 307 402.5C294.702 400.014 284.127 397.836 291.541 382.196C294.155 376.682 298.852 372.073 305.831 375.167C308.151 376.196 315.724 379.869 316.306 382.196C318.102 375.917 316.834 365.638 322.128 361.602C322.095 356.64 321.418 353.141 322.623 348.16C322.851 346.325 326.499 340.4 325.99 338.781C324.658 334.565 320.977 328.913 319.154 324.772C315.901 317.39 313.512 310.397 311.233 302.772C309.314 296.625 307.102 284.468 306.919 278.063C302.53 292.793 289.107 292.793 278.759 299.551C281.239 305.914 282.859 320.283 282.806 327.336C282.777 331.297 281.723 337.213 281.847 341.468C281.819 346.172 283.021 351.054 282.972 355.731C282.656 375.509 277.318 394.679 263.146 409.158C249.864 422.73 233.633 428.355 214.961 428.592C183.635 428.987 152.391 409.734 139.316 381.162C138.335 379.018 137.165 376.919 137.145 374.529C124.322 373.293 118.266 373.923 107.689 363.599C104.62 360.169 98.723 352.376 97.9147 347.752C96.5827 340.136 93.9297 336.052 91.3472 329.099C85.5337 313.447 85.2867 297.928 89.0534 281.763C94.4463 258.621 105.571 242.718 122.536 226.566C121.797 219.472 122.02 213.896 127.951 208.923C134.342 203.564 144.706 204.97 149.802 211.391C187.235 201.656 228.771 209.265 256.214 237.527C260.275 241.709 263.225 246.357 267.017 250.697C270.326 251.83 273.431 251.841 276.862 252.162C289.112 253.305 303.612 260.806 306.757 273.747C307.63 261.534 309.261 249.716 325.111 255.33C332.193 252.297 333.458 246.491 336.348 240.004C340.608 230.44 344.398 220.779 351.332 212.742C361.367 201.116 373.536 197.227 388.406 196.23ZM464.17 361.542C466.346 355.836 466.751 352.91 467.494 346.769C474.021 348.979 480.131 349.575 486.4 346.415C491.131 344.082 494.738 339.959 496.42 334.958C498.045 330.001 497.862 324.046 495.508 319.345C494.252 316.838 492.294 315.414 489.635 314.634C486.517 313.72 483.126 313.705 480.209 315.288C474.021 318.649 471.779 334.223 467.363 333.33C466.868 333.228 466.112 333.057 465.855 332.607C465.252 331.552 465.279 330.166 465.399 328.991C465.687 326.172 466.613 323.327 467.165 320.535C468.691 312.82 469.515 303.237 466.751 295.694C465.744 292.944 464.212 290.593 462.488 288.247C459.87 287.082 455.478 285.022 452.693 284.757C444.373 283.967 434.876 287.601 426.796 289.128C418.866 290.628 411.176 291.326 403.261 290.324C386.391 288.187 365.423 268.664 348.979 270.243C335.439 275.515 339.691 288.143 340.713 299.485C341.073 303.204 341.124 306.946 340.869 310.676C339.964 322.271 334.567 334.328 334.879 345.381C336.102 388.889 378.746 423.05 420.887 404.619C438.554 396.889 455.769 382.478 463.126 364.229C463.483 363.335 463.831 362.442 464.17 361.542ZM127.755 368.259C129.437 368.388 139.662 368.097 139.842 368.433C142.539 373.473 143.902 378.289 146.744 383.446C158.553 404.826 181.948 420.259 206.143 422.688C223.947 424.472 239.8 421.44 253.445 410.349C274.899 392.907 279.781 368.268 276.065 342.223C275.491 338.196 276.987 331.21 276.765 326.937C276.853 323.528 275.569 303.144 273.862 301.237C272.699 301.726 273.215 301.759 272.254 301.486C271.905 300.871 271.629 300.1 271.103 299.879C267.891 301.822 259.799 301.867 255.719 302.352C251.539 302.85 247.065 303.534 242.896 303.864C235.025 304.442 226.769 304.16 218.957 305.204C206.95 306.805 195.303 310.298 183.9 314.04C173.013 317.612 167.047 320.286 159.943 329.66C157.335 333.099 152.816 336.379 151.829 340.877C150.336 348.118 149.875 356.826 147.86 363.884C146.178 364.121 145.499 364.241 143.826 364.727C141.719 356.532 137.898 334.151 130.831 330.115C125.547 327.099 118.058 326.556 112.289 328.289C108.394 329.462 104.511 331.695 102.598 335.453C100.933 338.724 101.948 342.448 103.106 345.707C106.219 354.469 112.369 362.115 120.868 366.079C123.181 367.159 125.234 367.842 127.755 368.259ZM459.292 419.944C455.73 417.275 452.828 415.893 448.682 414.343C448.181 414.154 447.809 413.524 447.213 413.29C444.284 419.368 443.072 420.43 442.934 427.704C445.804 428.073 452.117 429.722 454.273 428.568C455.751 427.956 456.438 427.806 456.968 426.157C457.778 423.644 457.976 422.283 459.292 419.944ZM257 251.5H257.5L258.5 251C258.861 250.697 259.338 250.5 259.338 249.875C258.845 248.355 250 238.5 248 237C247 236 245.5 235 245 234.5L244 233.5C243.5 233 242.5 232.5 241.5 232C240 230.5 237.087 230.833 235.5 231C237 232 238.179 233.11 239.5 234.5L241.5 236.5C241.532 237.186 250.58 248.295 251.737 253.004C252.81 253.631 253.345 252.843 254.5 252.5L255.156 252.162L256.214 251.812L257 251.5ZM321.885 403.701C323.109 401.176 323.369 401.461 325.852 400.481C325.774 397.386 325.741 395.746 325.027 392.736C322.332 391.314 320.995 390.676 317.826 391.021C316.081 391.575 315.038 391.656 314.156 393.461C312.828 396.181 312.999 401.302 316.306 402.544C318.099 403.218 319.994 403.041 321.885 403.701ZM128.253 215.957C128.25 218.12 128.254 220.146 128.356 222.305C130.792 220.481 131.922 219.805 134.447 218.276C137.938 216.271 140.059 214.845 143.99 213.871L145.43 213.509C141.763 212.378 139.009 211.212 135.156 211.448C131.136 212.528 131.448 213.538 128.253 215.957ZM475.289 426.118C474.699 424.972 473.589 422.685 472.93 421.665C470.768 421.182 469.539 420.972 467.243 421.11C462.737 421.905 462.455 426.493 463.138 430.22C466.004 432.834 467.087 433.56 471.026 433.449C472.12 433.236 473.125 431.563 474.351 430.382L475.289 426.118ZM340.62 393.926C342.311 394.235 344.05 394.574 345.744 394.847C347.438 395.119 349 395 352 395.5C351.532 394.531 347.342 392.625 346.322 392.316C346.262 391.134 346.379 389.281 345.579 388.517C343.498 392.409 344.901 391.686 340.62 393.926ZM182.503 307.42C188.763 307.354 194.197 304.409 200.313 302.865C204.266 301.867 208.015 301.105 212.037 300.451C221.905 298.396 230.441 299.489 240.429 298.371C257.472 296.463 287.216 295.49 299.1 281.601C304.704 275.053 295.983 265.203 290.038 262.115C283.149 258.538 273.279 256.345 265.441 257.361C260.859 258.068 254.162 258.938 249.843 260.129C233.321 264.681 219.373 273.888 206.479 284.941C203.212 287.741 199.949 291.255 196.878 293.858C192.247 297.782 187.258 304.475 182.503 307.42ZM480.875 425.158C480.857 428.879 480.527 430.016 478.821 433.365C481.42 435.728 489.551 439.743 492.888 440.202C493.76 439.881 493.464 440.169 493.94 439.494C496.465 434.49 497.43 431.401 496.725 425.788C492.621 426.079 486.133 424.906 480.875 425.158ZM98.9239 331.447L99.1535 331.075C99.3853 330.703 99.6227 330.334 99.8656 329.968C100.875 328.466 103.32 326.214 103.521 324.529C104.119 319.333 102.311 313.911 102.149 308.739C101.547 289.513 103.762 270.065 111.425 252.269C112.103 250.695 113.248 246.971 112.681 245.339L111.943 245.028C110.782 248.081 108.137 250.996 106.394 253.826C95.575 271.402 89.215 294.447 93.6329 314.943C94.3734 318.376 94.9302 321.624 96.2325 324.877C96.7713 326.193 97.376 327.483 98.0442 328.739C98.35 329.645 98.6546 330.529 98.9239 331.447ZM313 387.5C308.665 384.882 305.465 380.955 299.8 379.761C298.178 382.223 294.68 387.518 294.182 390.664C294.149 390.871 296.469 393.08 296.99 393.68C298.5 394.847 298.074 394.63 301 395.5L304.5 396.5L306.5 397L308.5 397.5C307.96 398.286 308 389 313 387.5ZM168.151 315.051C170.146 311.92 173.817 308.793 176.596 306.19C178.762 304.118 185.361 298.897 185.442 295.949C185.558 291.738 174.223 270.228 171.446 265.429C168.873 260.984 166.045 256.64 163.126 252.417C161.349 249.847 159.511 247.293 157.512 244.891C156.605 243.802 155.122 242.647 154.421 241.466C154.137 240.987 154.175 240.966 154.061 240.462C153.973 240.075 153.886 239.692 153.807 239.301C153.309 238.725 153.509 238.857 152.879 238.483C150.933 242.519 153.538 249.449 154.577 253.821C156.26 260.992 157.878 268.179 159.43 275.38C160.774 282.016 162.053 288.666 163.267 295.327C164.321 301.246 165.382 309.869 168.151 315.051ZM332.81 397.476C330.547 400.715 329.929 402.436 328.259 405.968C331.227 408.169 336.714 412.508 339.673 414.199C340.917 413.812 341.271 413.392 342.266 413.089L342.965 412.999C345.357 409.68 346.877 405.347 347.09 401.275C341.981 400.772 338.102 398.628 332.81 397.476ZM169.373 227.958C180.87 232.197 207.637 261.256 213.011 272.734C214.848 271.385 216.291 270.498 218.254 269.321C219.82 268.339 224.513 265.776 224.952 264.292C223.958 259.598 211.064 246.941 206.941 243.438C204.588 241.476 202.115 239.665 199.534 238.014C193.451 234.054 181.743 227.952 174.534 227.399C172.804 227.548 171.081 227.656 169.373 227.958ZM132.679 241.918L132.577 242.365C131.679 246.196 128.414 249.851 126.82 255.701C121.839 273.98 120.911 292.453 123.156 311.231C123.365 312.982 123.892 319.642 124.763 320.769C126.044 322.43 132.564 324.649 135.028 325.977C136.253 326.634 137.5 327 138.5 327.5C138.856 327.678 139 327.839 139.5 327.839H140.078C140.078 327.839 140.57 327.839 140.914 327.839L141.352 327.824C141.92 326.892 138.836 306.088 138.482 303.441C136.686 290.001 135.243 276.517 134.153 263.003C133.902 259.768 133.693 243.51 132.679 241.918Z" fill="black"/>
<path d="M371.446 364.646C379.694 363.986 386.775 366.748 394.78 367.266C401.69 367.713 407.18 365.216 413.862 368.895C418.503 376.268 411.77 383.821 406.595 388.616C402.131 391.5 397.73 393.431 392.342 393.857C381.088 394.745 370.717 386.223 367.932 375.557C367.363 373.38 367.249 371.437 367.111 369.192C367.216 368.958 367.321 368.721 367.432 368.487C368.511 366.199 369.147 365.488 371.446 364.646ZM372 371.5C372 373 373.464 375.905 375.002 378.505C378.545 384.505 385.558 388.259 392.441 388.415C396.153 388.499 401.052 385.695 403.885 383.437C406.172 381.701 409.377 378.247 410.166 375.347C410.346 374.679 409.968 374.606 409.5 374C409.255 373.557 408.5 373 408.5 373L407.758 372.664C407 372.5 406.5 372.5 406 372.5C404.5 372.664 404.565 372.523 403.084 372.664C392.921 373.623 384.919 371.791 374.96 370.055C374 370 373.5 370 372 371.5Z" fill="black"/>
<path d="M360.272 314.346C365.273 314.145 365.987 314.325 368.817 318.412C366.427 322.613 365.942 324.547 370.274 327.012C369.878 332.979 368.802 336.265 364.428 340.724C362.59 341.105 360.965 341.641 359.136 341.297C357.082 340.982 356.336 340.943 355.086 339.177C352.079 334.937 351.881 328.295 352.696 323.393C350.822 323.066 348.952 322.724 347.081 322.361C347.132 320.358 347.126 319.558 346.868 317.57C354.099 316.868 353.398 317.591 360.272 314.346Z" fill="black"/>
<path d="M414.765 319.741C426.073 320.958 418.491 326.493 419.676 331.06C420.578 331.384 422.23 331.893 422.389 333.087C423.198 339.135 417.193 350.643 409.893 346.085C405.021 341.896 404.284 335.168 405.975 329.318C404.823 328.991 403.714 328.529 402.671 327.944C401.501 327.279 399.298 325.729 398.911 324.376L399.289 323.732C402.383 322.034 405.636 322.853 408.277 322.187C410.684 321.582 410.855 320.292 414.765 319.741Z" fill="black"/>
<path d="M384.38 292.228C380.173 287.503 372.172 284.825 365.972 284.952C362.131 285.637 352.966 286.885 350.927 291.262C350.673 291.813 350.467 292.75 350.5 293.5L351.5 294L352.957 293.863C356.201 294.329 361.891 288.891 370.628 290.59C373.038 291.25 374.918 291.832 377.109 293.121C378.632 294.017 380.584 296.635 382.032 296.989C382.356 297.068 382.5 297.129 383 297.129H383.5H384.404C385.759 296.131 385.471 293.455 384.38 292.228Z" fill="black"/>
<path d="M408.502 300.319C418.072 292.007 435.101 292.451 442.872 302.928C442.683 304.325 442.557 306.262 441.936 307.453C440.683 307.543 440.857 306.829 440.218 306.319C431.554 299.445 424.101 298.695 413.808 302.409C412.004 299.93 410.984 302.376 408.796 301.714L408.502 300.319Z" fill="black"/>
<path d="M378.746 336.22C381.136 335.677 382.932 335.761 385.342 335.821C385.45 337.74 385.573 338.4 385.975 340.244C384.649 340.643 383.873 340.889 382.614 341.447C381.783 340.793 381.594 340.52 380.539 340.511L379.805 340.817L379.733 341.297C380.347 341.878 380.308 341.833 381.13 342.073C380.011 342.775 379.079 344.223 378.243 345.318C378.743 346.088 379.817 347.77 380.443 348.334C381.717 349.482 383.144 350.34 383.954 351.929L383.795 352.403L382.608 352.598C382.506 353.611 383.873 353.524 384.296 355.006C383.294 355.524 382.653 355.425 381.552 355.282C371.146 353.932 371.863 341.572 378.746 336.22ZM380.149 338.184C381.337 338.334 383 338.7 384.047 338.301C384.293 337.51 384.269 337.896 384.029 337.123C382.647 337.366 381.268 337.635 379.897 337.932L379.942 338.13L380.149 338.184Z" fill="black"/>
<path d="M384.029 337.123C384.269 337.896 384.293 337.51 384.047 338.301C383 338.7 381.337 338.334 380.149 338.184L379.942 338.13L379.897 337.932C381.268 337.635 382.647 337.366 384.029 337.123Z" fill="black" fill-opacity="0.886275"/>
<path d="M408.502 300.319L408.796 301.714C410.984 302.376 412.004 299.93 413.808 302.409C412.588 303.345 409.677 304.982 408.256 303.939C407.797 302.748 408.244 301.792 408.502 300.319Z" fill="black" fill-opacity="0.968627"/>
<path d="M381.13 342.073C380.308 341.833 380.347 341.878 379.733 341.297L379.805 340.817L380.539 340.511C381.594 340.52 381.783 340.793 382.614 341.447L381.13 342.073Z" fill="black" fill-opacity="0.972549"/>
<path d="M248.984 371.863C252.173 371.662 253.759 372.316 256.166 374.259C256.245 374.484 256.322 374.712 256.398 374.937C257.972 379.647 257.323 384.439 255.035 388.775C248.143 401.836 233.835 406.481 220.794 399.773C217.071 397.893 210.696 391.665 209.569 387.503C205.146 371.174 223.795 377.386 232.74 375.503C238.173 374.358 243.573 373.018 248.984 371.863ZM215.712 381.74C215.03 382.664 214.715 383.135 213.895 383.92C213.572 386.022 218.7 391.41 220.501 392.598C233.793 401.944 247.496 396.016 252.007 381.066C251.68 379.728 251.552 378.349 250.657 377.464C249.909 377.446 249.972 377.359 249.31 377.578C240.26 380.181 231.031 381.788 221.612 381.608C219.662 381.572 217.656 381.614 215.712 381.74Z" fill="black"/>
<path d="M254.112 310.745C262.082 310.673 265.438 314.31 267.904 321.516C271.149 330.997 272.621 337.366 268.01 346.679C260.011 350.811 253.709 344.883 253.287 337.105C252.628 329.668 255.995 334.037 256.916 330.097L256.611 329.677C253.522 328.874 252.795 326.742 254.382 323.863C256.06 320.817 258.582 319.366 261.869 318.406C257.4 317.357 256.229 316.247 251.698 316.781C250.316 318.358 247.709 324.097 246.193 324.262C245.812 323.773 245.5 323.351 245.145 322.841L243.721 322.745C240.801 319.654 246.976 313.222 249.621 311.974C251.48 311.096 252.148 310.931 254.112 310.745Z" fill="black"/>
<path d="M201.418 320.574C210.603 319.666 215.926 332.082 217.013 339.504C217.939 345.836 217.16 349.89 213.376 355.057C205.072 358.187 200.939 352.094 199.436 344.754C199.288 343.162 198.959 342.292 200.108 341.12C200.541 341.018 201.829 340.775 202.058 340.445C203.989 337.671 198.195 334.01 200.985 331.567C201.493 331.12 201.676 330.868 202.072 330.286C202.101 329.585 202.123 329.282 202.239 328.592C203.001 328.187 206.376 327.69 207.634 327.396C205.566 326.904 203.906 326.802 201.603 326.196L198.678 327.123C198.607 327.21 198.537 327.297 198.467 327.384C195.93 329.267 195.477 335.92 191.677 334.892C189.647 332.949 190.438 329.704 191.547 327.435C193.629 323.171 197.231 321.983 201.418 320.574Z" fill="black"/>
<path d="M240.298 343.689C242.344 343.752 243.516 343.641 245.34 344.631C247.665 345.881 249.341 348.07 249.941 350.64C251.06 355.249 248.886 360.025 244.826 362.325C243.511 363.072 241.962 363.368 240.506 363.71C239.846 363.168 238.891 361.066 239.176 360.184C239.939 357.827 242.972 356.277 244.968 355.084C244.801 353.599 244.648 352.115 244.509 350.628C242.074 350.367 236.118 348.079 237.044 344.919C237.888 344.022 239.029 343.962 240.298 343.689Z" fill="black"/>
<path d="M111.943 245.028L112.681 245.339C113.248 246.971 112.103 250.695 111.425 252.269C103.761 270.065 101.547 289.513 102.149 308.739C102.311 313.911 104.119 319.333 103.521 324.529C103.32 326.214 100.875 328.466 99.8655 329.968C99.6227 330.334 99.3852 330.703 99.1535 331.075L98.9239 331.447C98.6546 330.529 98.35 329.645 98.0442 328.739C97.376 327.483 96.7713 326.193 96.2325 324.877C94.9302 321.624 94.3734 318.376 93.6329 314.943C89.215 294.447 95.575 271.402 106.394 253.826C108.137 250.996 110.782 248.081 111.943 245.028Z" fill="black" fill-opacity="0.01"/>
<path d="M426.818 114.933C430.419 114.682 435.332 116.624 438.169 118.807C440.975 121.016 442.312 123.655 442.816 127.061C444.222 136.57 435.809 142.881 427.112 143.155C425.283 143.213 425.697 143.262 424 144C428.101 146.175 430.112 148.57 431.002 152.936C428.556 157.908 425.018 161.064 421.918 165.701C424.913 168.389 427.953 171.565 430.813 174.441C431.218 176.266 431.29 180.028 430.022 181.415C425.633 181.938 420.086 174.253 416.947 171.685C415.191 170.248 413.641 168.929 411.689 167.68C406.421 164.311 400.809 160.427 395.068 157.942C391.893 156.587 388.619 155.028 385.447 153.612C385.465 153.216 385.588 150.547 385.642 150.468C388.598 145.94 404.556 154.885 406.229 155.732C406.958 154.164 407.785 152.658 408.601 151.133C408.628 148.7 407.369 142.467 408.637 141.038L409.068 141.171C409.5 141.5 409.5 141.5 409.5 141.5L410 142C410 142 410.203 142.097 410.31 142.097C413.473 141.412 416.153 148.052 417.019 150.423C416.09 153.096 412.645 158.425 412.996 160.093C413.659 161.076 413.239 160.701 414.315 161.243C415.559 161.089 415.283 161.175 416.21 160.399C421.687 155.794 422.605 151.265 422.071 144.422C422.038 144 422.312 143.5 423.5 143C422.744 142.554 418.941 140.553 418 140C415.441 136.553 413.351 135.554 413 130.347C412.349 120.727 418.223 115.945 426.818 114.933ZM422.312 133.438C426.164 135.409 428.293 136.078 432.67 134.717C434.16 133.631 435.44 132.071 436.547 130.596C436.508 129.099 436.487 127.75 436.337 126.255C432.481 122.869 430.572 121.281 425.163 122.089C423.67 122.333 422.72 122.281 421.85 123.625C419.979 126.506 421.353 130.495 422.312 133.438Z" fill="black"/>
<path d="M381.378 84.1531C382.029 84.3738 382.692 84.5498 383.366 84.6802C388.364 85.5249 392.393 92.2865 394.882 96.2055C395.095 103.18 390.55 115.381 388.502 122.518C386.778 128.519 382.23 150.715 374.96 151.61C372.597 150.484 374.669 144.484 375.4 142.573C378.063 135.611 379.352 126.596 382.101 119.852C379.763 119.249 374.198 118.117 372.636 116.826L372.243 116.866L371.356 118.568C367.941 122.418 365.735 122.721 360.989 124.291C355.427 123.194 349.608 122.542 347.935 115.915C346.97 111.973 345.273 106.389 347.608 102.648C352.315 95.13 365.294 94.3674 371.542 100.278C373.826 102.438 374.807 107.913 375.592 111.005C377.814 111.827 380.092 112.602 382.329 113.416C385.873 109.544 386.577 103.834 387.243 98.801C386.181 96.2112 380.785 88.7247 381.867 86.9037C381.867 86.625 381.5 86.5 381.5 86.207C381.5 86.207 381.379 86.0703 381.379 85.5703C381.356 85.5096 381.379 85.1926 381.379 85.082C381.379 84.8528 381 84.5 381.378 84.1531ZM353.236 108.13C354.348 110.79 355.742 113.365 356.738 115.764C360.002 116.504 360.176 116.88 363.213 115.743C364.889 115.073 366.526 113.453 367.938 112.227C367.926 110.529 367.941 108.77 367.869 107.078C366.175 105.868 365.954 105.628 364.637 104.059C362.386 103.784 360.677 103.608 358.392 103.844C354.888 104.108 354.852 105.214 353.236 108.13Z" fill="black"/>
<path d="M240.293 480.171C241.311 480.798 246.831 492.372 248.944 495.107C253.232 496.633 262.284 496.669 264.719 498.426C264.364 498.969 263.5 500 262.5 501C260 503.5 259.111 504.444 256.617 506.945C253.531 510.042 253.617 509.407 253.84 513.386C254.001 516.24 256.213 523.811 255.501 525.991C252.36 526.969 245.167 521.146 240.718 520.477C235.522 521.41 228.946 526.501 225.528 526.828C224.897 525.485 226.268 519.745 226.544 517.979C227.011 514.984 227.189 512.324 227.342 509.311C224.9 507.242 222.535 505.083 220.253 502.84C218.431 501.029 217.526 499.761 215.477 498.165C218.764 497.074 228.45 495.608 231.848 495.973C233.574 493.131 239.192 482.963 240.293 480.171Z" fill="black"/>
<path d="M306.816 495C307.835 495.627 313.354 507.201 315.467 509.935C319.755 511.462 328.808 511.498 331.242 513.255C330.888 513.798 330.023 514.829 329.023 515.829C326.523 518.329 325.634 519.273 323.14 521.773C320.054 524.871 320.141 524.235 320.364 528.214C320.524 531.069 322.736 538.64 322.025 540.82C318.884 541.797 311.691 535.974 307.242 535.306C302.046 536.238 295.47 541.33 292.051 541.656C291.42 540.313 292.792 534.574 293.067 532.808C293.534 529.812 293.712 527.153 293.866 524.139C291.423 522.07 289.059 519.911 286.776 517.669C284.954 515.857 284.049 514.589 282 512.994C285.287 511.902 294.973 510.436 298.372 510.802C300.098 507.959 305.715 497.792 306.816 495Z" fill="black"/>
<path d="M373.816 480C374.835 480.627 380.354 492.201 382.467 494.935C386.755 496.462 395.808 496.498 398.242 498.255C397.888 498.798 397.023 499.829 396.023 500.829C393.523 503.329 392.634 504.273 390.14 506.773C387.054 509.871 387.141 509.235 387.364 513.214C387.524 516.069 389.736 523.64 389.025 525.82C385.884 526.797 378.691 520.974 374.242 520.306C369.046 521.238 362.47 526.33 359.051 526.656C358.42 525.313 359.792 519.574 360.067 517.808C360.534 514.812 360.712 512.153 360.866 509.139C358.423 507.07 356.059 504.911 353.776 502.669C351.954 500.857 351.049 499.589 349 497.994C352.287 496.902 361.973 495.436 365.372 495.802C367.098 492.959 372.715 482.792 373.816 480Z" fill="black"/>
<path d="M432.816 451C433.835 451.627 439.354 463.201 441.467 465.935C445.755 467.462 454.808 467.498 457.242 469.255C456.888 469.798 456.023 470.829 455.023 471.829C452.523 474.329 451.634 475.273 449.14 477.773C446.054 480.871 446.141 480.235 446.364 484.214C446.524 487.069 448.736 494.64 448.025 496.82C444.884 497.797 437.691 491.974 433.242 491.306C428.046 492.238 421.47 497.33 418.051 497.656C417.42 496.313 418.792 490.574 419.067 488.808C419.534 485.812 419.712 483.153 419.866 480.139C417.423 478.07 415.059 475.911 412.776 473.669C410.954 471.857 410.049 470.589 408 468.994C411.287 467.902 420.973 466.436 424.372 466.802C426.098 463.959 431.715 453.792 432.816 451Z" fill="black"/>
<path d="M180.816 451C181.835 451.627 187.354 463.201 189.467 465.935C193.755 467.462 202.808 467.498 205.242 469.255C204.888 469.798 204.023 470.829 203.023 471.829C200.523 474.329 199.634 475.273 197.14 477.773C194.054 480.871 194.141 480.235 194.364 484.214C194.524 487.069 196.736 494.64 196.025 496.82C192.884 497.797 185.691 491.974 181.242 491.306C176.046 492.238 169.47 497.33 166.051 497.656C165.42 496.313 166.792 490.574 167.067 488.808C167.534 485.812 167.712 483.153 167.866 480.139C165.423 478.07 163.059 475.911 160.776 473.669C158.954 471.857 158.049 470.589 156 468.994C159.287 467.902 168.973 466.436 172.372 466.802C174.098 463.959 179.715 453.792 180.816 451Z" fill="black"/>
<path d="M152.202 124.836C153.357 124.777 156.03 124.698 157.115 125.02C162.135 126.749 165.536 132.451 169.155 136.138C170.711 137.723 173.332 140.319 174.298 142.066L174.741 141.958C176.097 139.007 177.746 138.492 180.618 136.983C181.083 137.035 181.547 137.091 182.01 137.151C183.573 137.353 184.166 137.269 185.153 138.548C185.658 141.955 181.122 143.744 179.362 146.884C179.349 147.212 184.537 159.443 185.19 161.123C186.968 161.256 188.742 161.454 190.507 161.716C190.708 167.449 195.526 171.399 198.597 177.402C196.828 183.733 194.52 186.811 188 186C187.812 186.95 187.979 186.4 187.755 187.342C186.789 188.325 183.773 188.491 182.875 187.877C178.506 184.893 175.63 185.022 170.695 183.955L170.681 180.47C171.573 179.664 172.878 178.385 174.077 178.149C175.348 177.897 175.711 178.347 176.488 177.526C176.036 176.851 174.778 176.737 173.882 176.551C173.398 174.784 175.459 172.016 176.516 170.561C178.639 167.64 180.052 165.435 181.416 162.06C178.382 159.707 174.678 154.598 171.919 151.505L159.77 137.972C158.316 136.351 155.358 133.328 154.286 131.762C151.279 131.725 144.959 132.084 143.273 129.348C143.145 126.162 149.743 125.141 152.202 124.836ZM186.079 184.916L186.305 185.512L186.728 185.413C186.728 184.916 186.728 184.916 187 184.5C188.429 182.657 189.639 183.107 191.236 182.189C191.478 181.116 191.353 177.93 191.388 176.597C189.385 174.891 187.35 171.27 186.261 171.289C184.155 172.249 181.589 173.077 180.901 175.457C180.717 176.093 180.711 176.068 180.308 176.625L179.084 177.112L178.952 177.55C183.074 178.83 186.052 179.625 186.079 184.916Z" fill="black"/>
<path d="M234.923 92.7375C237.806 93.231 237.745 93.6532 238.881 96.1881C237.082 100.053 235.998 102.113 235.721 106.356C239.386 106.692 244.061 108.838 247.141 111.006C247.858 111.511 247.799 112.39 247.925 113.287C248.811 113.981 248.998 113.727 250.429 113.76L250.645 114.057C250.243 114.924 248.335 115.679 247.196 117.119L243.719 117.555C238.329 115.36 239.023 115.891 234.529 111.86C232.66 111.909 228.552 120.603 227.231 122.325C225.888 124.078 225.301 124.581 223.572 126.009C221.813 127.199 218.075 128.446 216.201 127.143C216.097 125.962 218.672 122.63 219.503 121.431C223.833 115.191 225.754 111.43 227.54 104.18C224.788 104.495 222.011 104.821 219.35 105.579C217.074 104.774 214.622 103.498 212.427 102.428C213.665 101.888 214.829 101.156 216.051 100.666C221.041 98.6673 226.23 97.9689 230.703 94.7725C231.878 93.9333 233.544 93.2532 234.923 92.7375Z" fill="black"/>
<path d="M478.12 146.415C480.659 146.264 483.348 146.783 484.302 149.531C484.029 155.725 457.082 172.808 451.263 178.811L450.993 179.094C449 180 448 180.098 447.276 180.098C446.547 179.509 446.553 178.635 446.286 177.544C449.503 169.449 470.079 148.82 478.12 146.415Z" fill="black"/>
<path d="M249.919 80.9309C246.073 78.7465 241.028 78.1561 236.662 78.4125C236.319 80.0802 235.901 81.6518 237.199 82.9372C239.418 85.1351 242.626 85.9018 245.58 86.455C245.91 88.6517 246.798 90.7291 247.595 92.7941C250.342 99.9059 252.616 107.135 254.177 114.602L254.179 114.615C254.411 115.725 255.118 119.112 255.876 119.711C256.403 120.244 257.661 120.98 258.478 119.655C258.885 119.018 258.985 116.672 258.98 115.816C259.114 114.437 259.286 112.841 259.358 111.467C259.684 105.246 257.947 103.614 265.021 102.722C266.077 101.252 266.545 100.441 268.048 99.3728C265.681 96.5677 262.928 94.1258 259.196 96.5893L257.953 97.3956L257.592 97.3086C257.026 94.3683 255.417 91.9824 254.537 89.0793C253.697 86.3099 252.574 82.4392 249.919 80.9309Z" fill="black"/>
<path d="M434.804 185.018C436.084 184.987 438.35 185.027 439.517 185.461C440.26 187.08 440.463 186.263 441 187.5C441.806 187.634 441.5 189 441.5 189.5L441 190.5L440.5 192C439.882 192.899 440 193 439.43 193.381L438.905 193.657C438.362 193.752 436.294 194.069 435.883 193.922C430.759 192.095 430.508 187.779 434.804 185.018Z" fill="black"/>
<path d="M144.906 146.893C144.862 147.27 144.787 148.283 144.495 148.541C142.325 150.466 134.666 152.039 132.312 150.145C132.092 149.967 132 149.584 132 149.074L132 148.565C132 147.545 132.356 147.614 132.6 147.268C133.739 145.655 141.418 143.12 143.424 144.306C143.865 144.975 144.053 145.308 144.631 145.879L145 146.236L144.906 146.893Z" fill="black"/>
<path d="M313.923 68.7361C314.645 68.2086 315.095 67.9817 316.006 68.1042C320.326 68.6859 326.226 73.4248 328.67 76.9636C331.464 81.0088 329.86 107.718 328.646 112.941C328.064 115.45 323.723 119.33 324.041 120.936C325.108 121.762 325.756 121.91 325.876 123.211C326.002 124.615 325.498 126.58 325.198 127.976C324.542 128.586 323.574 129.237 323.475 129.951C326.838 132.186 331.641 131.925 332.52 136.046C332.681 136.811 332.732 137.526 332.921 138.373C329.887 143.582 321.441 134.705 318.356 134.391C316.842 136.564 312.304 140.099 309.636 140.412C306.044 140.833 301.163 137.589 298.505 135.317C298.168 135.028 297.836 134.735 297.507 134.436C296.36 135.344 296.316 137.105 293.539 138.482C289.9 140.287 286.768 142.773 283.829 138.469C289.122 134.499 295.3 130.82 296.292 123.852C296.339 123.523 296.382 123.194 296.418 122.864C295.484 120.849 294.221 118.229 294.219 115.989L294.464 115.587C297.375 115.669 297.274 115.435 299.282 117.396C303.783 121.79 305.282 123.891 301.643 129.909C304.647 132.618 306.068 132.943 309.852 133.988C313.737 130.826 316.348 128.144 318.605 123.636C317.463 121.089 317.226 119.16 317.981 116.383L318.351 115.961C320.284 116.302 321.1 119.288 323.111 118.072C323.315 116.008 323.274 102.584 322.794 101.012C321.529 101.15 320.012 101.359 318.768 101.441C317.844 104.862 316.96 108.949 315.991 112.217C314.837 112.587 314.147 112.81 313.05 113.306L312.279 113.218C311.803 112.463 311.812 112.496 311.584 111.635C310.981 108.618 311.146 94.7851 311.155 91.0495C310.628 89.4046 311.129 86.1442 309.555 83.0984C308.391 82.4249 307.647 81.8763 306.325 81.6325C305.432 80.5655 304.562 79.3884 304.574 77.945C306.295 74.9831 311.752 78.1517 313.83 79.5954C315.68 80.8816 316.645 82.1272 317.751 84.0603C317.781 87.2329 317.826 88.057 318.723 91.2214C318.387 92.3749 317.961 93.0034 318.336 93.9206C319.703 94.5346 320.86 94.3421 322.686 95.1745C322.958 89.8656 323.192 86.1773 322.716 80.862C319.904 78.3281 317.071 75.8158 314.217 73.3259C314.058 72.2201 313.476 69.5534 313.923 68.7361Z" fill="black"/>
<path fill-rule="evenodd" clip-rule="evenodd" d="M288.521 74.0811C291.393 73.9721 293.613 75.7157 295.636 77.4717C296.5 80.5 296.5 82 295.599 83.0586C299.509 83.0598 303.537 84.1361 306.325 81.6318C307.647 81.8756 308.391 82.4252 309.555 83.0986C308.442 84.5669 308.323 85.9205 307.879 87.7061C305.347 88.8085 304.381 89.308 301.726 89.5488C301.835 89.5568 300.877 89.9913 301 90C301.5 90.5 301.535 90.6261 301.925 91.1104C306.374 96.6548 308.124 98.6151 304.683 105.744C304.554 106.012 304.422 106.279 304.284 106.544C303.142 108.01 302.279 108.666 300.582 109.441C297.728 111.843 294.279 111.89 290.791 111.068C283.648 109.387 280.493 99.7258 285.303 94.2041C286.068 93.3258 288.094 91.9696 288.362 91.0342C287.988 90.6022 287.189 90.2635 286.309 89.9902C281.918 90.6872 283.229 91.3457 276.43 87.7598L276.311 87.5C281.715 81.9969 283.961 85.4396 289.5 84C290.5 83.5 290.903 83.0986 292 82C290 81.5 289 80.5 288.52 79.7314C287.942 78.2532 287.219 76.8748 287.318 75.3408C287.874 74.2422 287.474 74.6334 288.521 74.0811ZM294.632 95.5303C289.048 96.5998 287.94 99.1147 290.903 104.156C292.44 104.622 293.593 104.99 295.242 105.035C298.348 103.977 298.76 103.524 300.32 100.516C300.027 99.2254 299.62 97.6518 299.44 96.3662C297.866 96.046 296.224 95.6568 294.632 95.5303Z" fill="black" fill-opacity="0.988235"/>
<path d="M249.973 124.573C255.438 122.116 256.335 119.921 262.29 123.153C262.94 126.723 262.544 130.45 263.128 133.996C263.326 135.195 263.848 133.931 264.415 135.526C263.679 136.722 262.957 137.927 262.25 139.14C259.212 140.199 253.007 142.031 250.605 144.161L250.602 144.65C253.569 148.246 250.987 150.331 257.618 148.127C262.223 146.596 266.634 144.503 271.054 142.506L271.541 142.323C272.583 141.92 273.018 141.666 274.149 140.967C274.158 141.742 274.252 144.222 273.993 144.818C270.115 152.102 257.518 155.422 250.023 157.666C249.147 157.928 246.746 157.81 245.759 157.772C244.314 149.429 246.703 149.384 240.996 141.014C243.278 139.713 251.195 136.702 253.989 136.323C254.611 136.239 254.59 136.541 255.444 135.95C255.701 133.788 255.875 133.301 256.611 131.248C254.874 130.878 254.483 130.839 252.879 129.956C249.626 131.063 247.131 132.751 244.034 133.776C239.259 135.356 237.719 132.803 236.64 129.032C240.988 128.221 245.957 126.378 249.973 124.573Z" fill="black" fill-opacity="0.976471"/>
<path d="M147.723 149.674C150.306 144.714 149.404 145.688 154.638 146.183C154.819 149.267 155.292 154.951 155.049 157.779C158.512 157.272 169.488 156.898 171.901 159.165C171.545 163.541 170.488 164.835 165.667 164.756C162.196 164.7 158.701 164.308 155.22 164.211C155.512 170.519 155.304 182.73 147.994 185.252C147.537 185.177 147.295 185.265 147.013 184.847C145.348 182.374 150.999 164.062 147.87 159.662C145.849 162.077 145.743 160.745 144.153 161.6C139.882 163.898 136 165 134.036 163.336C133.5 161.5 135.348 161.543 135.419 160.651L136.336 159.781L136.44 159.64C137.61 158.154 141.552 155.511 143.012 154.154C144.38 152.882 145.311 151.932 146.602 150.521C146.905 150.161 147.313 149.949 147.723 149.674Z" fill="black" fill-opacity="0.960784"/>
</svg>
